<svg width="16" height="16" viewBox="0 0 16 16" fill="none" xmlns="http://www.w3.org/2000/svg">
<path d="M3.52756 5.1644C3.42597 4.55487 3.89602 4 4.51396 4H12.153C12.771 4 13.241 4.55487 13.1394 5.1644L12.4728 9.1644C12.3924 9.64659 11.9752 10 11.4864 10H5.18062C4.69178 10 4.27459 9.64659 4.19423 9.1644L3.52756 5.1644Z" stroke="#405175" stroke-linecap="round" stroke-linejoin="round"/>
<path d="M5.33317 13.3333C5.70136 13.3333 5.99984 13.0349 5.99984 12.6667C5.99984 12.2985 5.70136 12 5.33317 12C4.96498 12 4.6665 12.2985 4.6665 12.6667C4.6665 13.0349 4.96498 13.3333 5.33317 13.3333Z" stroke="#405175" stroke-width="0.7" stroke-linecap="round" stroke-linejoin="round"/>
<path d="M11.3332 13.3333C11.7014 13.3333 11.9998 13.0349 11.9998 12.6667C11.9998 12.2985 11.7014 12 11.3332 12C10.965 12 10.6665 12.2985 10.6665 12.6667C10.6665 13.0349 10.965 13.3333 11.3332 13.3333Z" stroke="#405175" stroke-width="0.7" stroke-linecap="round" stroke-linejoin="round"/>
<path d="M3.5326 5.16369L2.82269 2.5143" stroke="#405175" stroke-linecap="round" stroke-linejoin="round"/>
</svg>
