<svg width="129" height="32" viewBox="0 0 129 32" fill="none" xmlns="http://www.w3.org/2000/svg">
<rect opacity="0.07" width="129" height="32" rx="4" fill="#2D70FD"/>
<path d="M20.8913 14.62H19.451C19.3956 14.3123 19.2925 14.0414 19.1417 13.8075C18.9909 13.5736 18.8062 13.3751 18.5877 13.212C18.3692 13.0489 18.1245 12.9258 17.8537 12.8427C17.5859 12.7596 17.3013 12.718 16.9996 12.718C16.4549 12.718 15.9671 12.855 15.5362 13.1289C15.1084 13.4028 14.7699 13.8045 14.5206 14.3338C14.2744 14.8632 14.1513 15.5095 14.1513 16.2727C14.1513 17.0421 14.2744 17.6915 14.5206 18.2209C14.7699 18.7502 15.11 19.1503 15.5408 19.4212C15.9717 19.692 16.4564 19.8274 16.995 19.8274C17.2936 19.8274 17.5767 19.7874 17.8445 19.7074C18.1153 19.6243 18.36 19.5027 18.5785 19.3427C18.797 19.1826 18.9817 18.9872 19.1325 18.7564C19.2863 18.5225 19.3925 18.2547 19.451 17.9531L20.8913 17.9577C20.8144 18.4225 20.6651 18.8503 20.4435 19.2411C20.225 19.6289 19.9434 19.9644 19.5987 20.2475C19.2571 20.5276 18.8662 20.7446 18.4261 20.8984C17.986 21.0523 17.5059 21.1293 16.9858 21.1293C16.1671 21.1293 15.4377 20.9354 14.7976 20.5476C14.1574 20.1567 13.6527 19.5981 13.2834 18.8718C12.9171 18.1455 12.734 17.2791 12.734 16.2727C12.734 15.2633 12.9187 14.3969 13.288 13.6737C13.6573 12.9473 14.1621 12.3903 14.8022 12.0025C15.4424 11.6116 16.1702 11.4162 16.9858 11.4162C17.4875 11.4162 17.9553 11.4885 18.3892 11.6332C18.8262 11.7747 19.2186 11.984 19.5664 12.261C19.9142 12.5349 20.2019 12.8704 20.4297 13.2674C20.6574 13.6613 20.8113 14.1122 20.8913 14.62ZM25.7343 21.1431C25.0696 21.1431 24.4894 20.9908 23.9939 20.6861C23.4984 20.3814 23.1137 19.9551 22.8398 19.4073C22.5659 18.8595 22.4289 18.2193 22.4289 17.4869C22.4289 16.7513 22.5659 16.1081 22.8398 15.5572C23.1137 15.0063 23.4984 14.5785 23.9939 14.2738C24.4894 13.9691 25.0696 13.8168 25.7343 13.8168C26.3991 13.8168 26.9793 13.9691 27.4748 14.2738C27.9703 14.5785 28.355 15.0063 28.6289 15.5572C28.9028 16.1081 29.0397 16.7513 29.0397 17.4869C29.0397 18.2193 28.9028 18.8595 28.6289 19.4073C28.355 19.9551 27.9703 20.3814 27.4748 20.6861C26.9793 20.9908 26.3991 21.1431 25.7343 21.1431ZM25.739 19.9844C26.1698 19.9844 26.5268 19.8705 26.81 19.6428C27.0931 19.415 27.3024 19.1119 27.4378 18.7333C27.5763 18.3548 27.6456 17.9377 27.6456 17.4822C27.6456 17.0298 27.5763 16.6143 27.4378 16.2358C27.3024 15.8542 27.0931 15.5479 26.81 15.3171C26.5268 15.0863 26.1698 14.9709 25.739 14.9709C25.305 14.9709 24.9449 15.0863 24.6587 15.3171C24.3756 15.5479 24.1647 15.8542 24.0262 16.2358C23.8908 16.6143 23.8231 17.0298 23.8231 17.4822C23.8231 17.9377 23.8908 18.3548 24.0262 18.7333C24.1647 19.1119 24.3756 19.415 24.6587 19.6428C24.9449 19.8705 25.305 19.9844 25.739 19.9844ZM30.8405 21V13.9091H32.1654V15.0632H32.2531C32.4009 14.6723 32.6425 14.3677 32.9779 14.1491C33.3134 13.9276 33.715 13.8168 34.1828 13.8168C34.6568 13.8168 35.0538 13.9276 35.3739 14.1491C35.697 14.3707 35.9355 14.6754 36.0894 15.0632H36.1633C36.3326 14.6847 36.6019 14.383 36.9712 14.1584C37.3405 13.9306 37.7806 13.8168 38.2915 13.8168C38.9347 13.8168 39.4595 14.0183 39.8657 14.4215C40.275 14.8247 40.4797 15.4325 40.4797 16.245V21H39.0994V16.3743C39.0994 15.8942 38.9686 15.5464 38.707 15.331C38.4454 15.1155 38.133 15.0078 37.7698 15.0078C37.3205 15.0078 36.9712 15.1463 36.7219 15.4233C36.4726 15.6972 36.3479 16.0496 36.3479 16.4805V21H34.9722V16.2866C34.9722 15.9019 34.8522 15.5926 34.6122 15.3587C34.3721 15.1248 34.0597 15.0078 33.675 15.0078C33.4134 15.0078 33.1718 15.0771 32.9502 15.2156C32.7317 15.351 32.5547 15.5402 32.4193 15.7834C32.287 16.0265 32.2208 16.3081 32.2208 16.6282V21H30.8405ZM42.5897 23.6591V13.9091H43.9378V15.0586H44.0532C44.1332 14.9109 44.2486 14.7401 44.3994 14.5462C44.5502 14.3523 44.7595 14.183 45.0272 14.0384C45.295 13.8906 45.6489 13.8168 46.089 13.8168C46.6615 13.8168 47.1724 13.9614 47.6217 14.2507C48.071 14.54 48.4234 14.957 48.6789 15.5018C48.9374 16.0465 49.0667 16.7021 49.0667 17.4684C49.0667 18.2347 48.9389 18.8918 48.6835 19.4396C48.4281 19.9844 48.0772 20.4045 47.6309 20.6999C47.1847 20.9923 46.6753 21.1385 46.1029 21.1385C45.672 21.1385 45.3196 21.0662 45.0457 20.9215C44.7749 20.7769 44.5625 20.6076 44.4086 20.4137C44.2548 20.2198 44.1363 20.0475 44.0532 19.8967H43.9701V23.6591H42.5897ZM43.9424 17.4545C43.9424 17.9531 44.0147 18.3902 44.1594 18.7656C44.304 19.1411 44.5133 19.435 44.7872 19.6474C45.0611 19.8567 45.3966 19.9613 45.7936 19.9613C46.206 19.9613 46.5507 19.852 46.8277 19.6335C47.1047 19.4119 47.3139 19.1119 47.4555 18.7333C47.6002 18.3548 47.6725 17.9285 47.6725 17.4545C47.6725 16.9867 47.6017 16.5666 47.4601 16.1942C47.3216 15.8219 47.1124 15.5279 46.8323 15.3125C46.5553 15.0971 46.2091 14.9893 45.7936 14.9893C45.3935 14.9893 45.0549 15.0924 44.778 15.2987C44.504 15.5049 44.2963 15.7926 44.1547 16.1619C44.0132 16.5312 43.9424 16.9621 43.9424 17.4545ZM52.2535 11.5455V21H50.8732V11.5455H52.2535ZM57.4266 21.1431C56.728 21.1431 56.1263 20.9938 55.6216 20.6953C55.1199 20.3937 54.7321 19.9705 54.4582 19.4258C54.1874 18.878 54.052 18.2363 54.052 17.5007C54.052 16.7744 54.1874 16.1342 54.4582 15.5803C54.7321 15.0263 55.1137 14.5939 55.6031 14.283C56.0955 13.9722 56.671 13.8168 57.3297 13.8168C57.7297 13.8168 58.1175 13.8829 58.493 14.0153C58.8685 14.1476 59.2055 14.3554 59.504 14.6385C59.8025 14.9216 60.038 15.2894 60.2103 15.7418C60.3827 16.1912 60.4689 16.7375 60.4689 17.3807V17.87H54.8321V16.8359H59.1162C59.1162 16.4728 59.0424 16.1512 58.8946 15.8711C58.7469 15.5879 58.5392 15.3648 58.2714 15.2017C58.0067 15.0386 57.6959 14.957 57.3389 14.957C56.9511 14.957 56.6126 15.0524 56.3233 15.2433C56.037 15.431 55.8154 15.6772 55.6585 15.9819C55.5046 16.2835 55.4277 16.6113 55.4277 16.9652V17.7731C55.4277 18.247 55.5108 18.6502 55.677 18.9826C55.8462 19.315 56.0817 19.5689 56.3833 19.7443C56.6849 19.9167 57.0373 20.0028 57.4404 20.0028C57.702 20.0028 57.9406 19.9659 58.156 19.892C58.3714 19.8151 58.5576 19.7012 58.7146 19.5504C58.8716 19.3996 58.9916 19.2134 59.0747 18.9918L60.3811 19.2273C60.2765 19.612 60.0888 19.949 59.8179 20.2383C59.5502 20.5245 59.2132 20.7476 58.8069 20.9077C58.4038 21.0646 57.9436 21.1431 57.4266 21.1431ZM65.5704 13.9091V15.017H61.6972V13.9091H65.5704ZM62.7359 12.2102H64.1162V18.918C64.1162 19.1857 64.1562 19.3873 64.2362 19.5227C64.3162 19.6551 64.4193 19.7459 64.5455 19.7951C64.6748 19.8413 64.8148 19.8643 64.9656 19.8643C65.0764 19.8643 65.1734 19.8567 65.2565 19.8413C65.3396 19.8259 65.4042 19.8136 65.4504 19.8043L65.6996 20.9446C65.6196 20.9754 65.5058 21.0062 65.358 21.0369C65.2103 21.0708 65.0256 21.0893 64.8041 21.0923C64.4409 21.0985 64.1023 21.0339 63.7884 20.8984C63.4745 20.763 63.2206 20.5537 63.0267 20.2706C62.8328 19.9875 62.7359 19.632 62.7359 19.2042V12.2102ZM70.3372 21.1431C69.6386 21.1431 69.0369 20.9938 68.5322 20.6953C68.0305 20.3937 67.6427 19.9705 67.3688 19.4258C67.098 18.878 66.9626 18.2363 66.9626 17.5007C66.9626 16.7744 67.098 16.1342 67.3688 15.5803C67.6427 15.0263 68.0244 14.5939 68.5137 14.283C69.0061 13.9722 69.5817 13.8168 70.2403 13.8168C70.6404 13.8168 71.0282 13.8829 71.4036 14.0153C71.7791 14.1476 72.1161 14.3554 72.4146 14.6385C72.7132 14.9216 72.9486 15.2894 73.121 15.7418C73.2933 16.1912 73.3795 16.7375 73.3795 17.3807V17.87H67.7428V16.8359H72.0269C72.0269 16.4728 71.953 16.1512 71.8053 15.8711C71.6575 15.5879 71.4498 15.3648 71.182 15.2017C70.9174 15.0386 70.6065 14.957 70.2495 14.957C69.8617 14.957 69.5232 15.0524 69.2339 15.2433C68.9477 15.431 68.7261 15.6772 68.5691 15.9819C68.4152 16.2835 68.3383 16.6113 68.3383 16.9652V17.7731C68.3383 18.247 68.4214 18.6502 68.5876 18.9826C68.7568 19.315 68.9923 19.5689 69.2939 19.7443C69.5955 19.9167 69.9479 20.0028 70.3511 20.0028C70.6127 20.0028 70.8512 19.9659 71.0666 19.892C71.2821 19.8151 71.4683 19.7012 71.6252 19.5504C71.7822 19.3996 71.9022 19.2134 71.9853 18.9918L73.2918 19.2273C73.1871 19.612 72.9994 19.949 72.7286 20.2383C72.4608 20.5245 72.1238 20.7476 71.7175 20.9077C71.3144 21.0646 70.8543 21.1431 70.3372 21.1431ZM84.1388 14.0291C84.0896 13.5921 83.8865 13.2536 83.5294 13.0135C83.1724 12.7704 82.7231 12.6488 82.1814 12.6488C81.7937 12.6488 81.4582 12.7103 81.175 12.8335C80.8919 12.9535 80.6719 13.1197 80.5149 13.332C80.361 13.5413 80.2841 13.7798 80.2841 14.0476C80.2841 14.2723 80.3364 14.4661 80.441 14.6293C80.5487 14.7924 80.6888 14.9293 80.8611 15.0401C81.0366 15.1478 81.2243 15.2386 81.4243 15.3125C81.6244 15.3833 81.8167 15.4418 82.0014 15.4879L82.9247 15.728C83.2263 15.8018 83.5356 15.9019 83.8526 16.0281C84.1696 16.1542 84.4635 16.3204 84.7344 16.5266C85.0052 16.7328 85.2237 16.9883 85.3899 17.293C85.5592 17.5977 85.6438 17.9624 85.6438 18.3871C85.6438 18.9226 85.5053 19.3981 85.2283 19.8136C84.9544 20.229 84.5558 20.5568 84.0326 20.7969C83.5125 21.0369 82.8831 21.157 82.1445 21.157C81.4366 21.157 80.8242 21.0446 80.3071 20.82C79.7901 20.5953 79.3854 20.2768 79.093 19.8643C78.8006 19.4489 78.6391 18.9564 78.6083 18.3871H80.0394C80.0671 18.7287 80.1779 19.0134 80.3718 19.2411C80.5687 19.4658 80.8196 19.6335 81.1243 19.7443C81.432 19.852 81.769 19.9059 82.1353 19.9059C82.5384 19.9059 82.897 19.8428 83.2109 19.7166C83.5279 19.5874 83.7772 19.4089 83.9588 19.1811C84.1404 18.9503 84.2312 18.681 84.2312 18.3732C84.2312 18.0932 84.1511 17.8639 83.9911 17.6854C83.8341 17.5069 83.6202 17.3591 83.3494 17.2422C83.0817 17.1252 82.7785 17.0221 82.44 16.9329L81.3228 16.6282C80.5657 16.422 79.9655 16.1188 79.5223 15.7188C79.0822 15.3187 78.8622 14.7893 78.8622 14.1307C78.8622 13.5859 79.0099 13.1104 79.3054 12.7042C79.6008 12.2979 80.0009 11.9825 80.5057 11.7578C81.0104 11.5301 81.5798 11.4162 82.2138 11.4162C82.8539 11.4162 83.4187 11.5285 83.908 11.7532C84.4004 11.9779 84.7882 12.2872 85.0714 12.6811C85.3545 13.072 85.5022 13.5213 85.5145 14.0291H84.1388ZM87.4976 23.6591V13.9091H88.8456V15.0586H88.9611C89.0411 14.9109 89.1565 14.7401 89.3073 14.5462C89.4581 14.3523 89.6674 14.183 89.9351 14.0384C90.2029 13.8906 90.5568 13.8168 90.9969 13.8168C91.5694 13.8168 92.0803 13.9614 92.5296 14.2507C92.9789 14.54 93.3313 14.957 93.5868 15.5018C93.8453 16.0465 93.9746 16.7021 93.9746 17.4684C93.9746 18.2347 93.8468 18.8918 93.5914 19.4396C93.3359 19.9844 92.9851 20.4045 92.5388 20.6999C92.0926 20.9923 91.5832 21.1385 91.0108 21.1385C90.5799 21.1385 90.2275 21.0662 89.9536 20.9215C89.6828 20.7769 89.4704 20.6076 89.3165 20.4137C89.1626 20.2198 89.0442 20.0475 88.9611 19.8967H88.878V23.6591H87.4976ZM88.8503 17.4545C88.8503 17.9531 88.9226 18.3902 89.0672 18.7656C89.2119 19.1411 89.4212 19.435 89.6951 19.6474C89.969 19.8567 90.3045 19.9613 90.7015 19.9613C91.1139 19.9613 91.4586 19.852 91.7356 19.6335C92.0126 19.4119 92.2218 19.1119 92.3634 18.7333C92.5081 18.3548 92.5804 17.9285 92.5804 17.4545C92.5804 16.9867 92.5096 16.5666 92.368 16.1942C92.2295 15.8219 92.0202 15.5279 91.7402 15.3125C91.4632 15.0971 91.117 14.9893 90.7015 14.9893C90.3014 14.9893 89.9628 15.0924 89.6858 15.2987C89.4119 15.5049 89.2042 15.7926 89.0626 16.1619C88.9211 16.5312 88.8503 16.9621 88.8503 17.4545ZM95.7811 21V13.9091H97.1152V15.0355H97.1891C97.3184 14.6539 97.5461 14.3538 97.8723 14.1353C98.2016 13.9137 98.574 13.8029 98.9895 13.8029C99.0757 13.8029 99.1773 13.806 99.2942 13.8121C99.4142 13.8183 99.5081 13.826 99.5758 13.8352V15.1555C99.5204 15.1402 99.4219 15.1232 99.2804 15.1048C99.1388 15.0832 98.9972 15.0724 98.8557 15.0724C98.5294 15.0724 98.2386 15.1417 97.9831 15.2802C97.7308 15.4156 97.5307 15.6049 97.383 15.848C97.2353 16.0881 97.1614 16.362 97.1614 16.6697V21H95.7811ZM101.03 21V13.9091H102.411V21H101.03ZM101.727 12.815C101.487 12.815 101.281 12.735 101.109 12.5749C100.94 12.4118 100.855 12.2179 100.855 11.9933C100.855 11.7655 100.94 11.5716 101.109 11.4116C101.281 11.2485 101.487 11.1669 101.727 11.1669C101.967 11.1669 102.172 11.2485 102.341 11.4116C102.514 11.5716 102.6 11.7655 102.6 11.9933C102.6 12.2179 102.514 12.4118 102.341 12.5749C102.172 12.735 101.967 12.815 101.727 12.815ZM105.908 16.7898V21H104.528V13.9091H105.853V15.0632H105.94C106.103 14.6877 106.359 14.3861 106.707 14.1584C107.057 13.9306 107.499 13.8168 108.032 13.8168C108.515 13.8168 108.938 13.9183 109.301 14.1214C109.664 14.3215 109.946 14.62 110.146 15.017C110.346 15.4141 110.446 15.9049 110.446 16.4897V21H109.066V16.6559C109.066 16.1419 108.932 15.7403 108.664 15.451C108.396 15.1586 108.028 15.0124 107.561 15.0124C107.241 15.0124 106.956 15.0817 106.707 15.2202C106.46 15.3587 106.265 15.5618 106.12 15.8295C105.979 16.0942 105.908 16.4143 105.908 16.7898ZM115.867 13.9091V15.017H111.994V13.9091H115.867ZM113.033 12.2102H114.413V18.918C114.413 19.1857 114.453 19.3873 114.533 19.5227C114.613 19.6551 114.716 19.7459 114.842 19.7951C114.972 19.8413 115.112 19.8643 115.262 19.8643C115.373 19.8643 115.47 19.8567 115.553 19.8413C115.636 19.8259 115.701 19.8136 115.747 19.8043L115.996 20.9446C115.916 20.9754 115.803 21.0062 115.655 21.0369C115.507 21.0708 115.322 21.0893 115.101 21.0923C114.738 21.0985 114.399 21.0339 114.085 20.8984C113.771 20.763 113.517 20.5537 113.324 20.2706C113.13 19.9875 113.033 19.632 113.033 19.2042V12.2102Z" fill="#2D70FD"/>
</svg>
