<svg width="24" height="24" viewBox="0 0 24 24" fill="none" xmlns="http://www.w3.org/2000/svg">
<path d="M12.0017 17.1293C11.3677 17.1293 10.8076 17.0169 10.3213 16.7923C9.83814 16.5645 9.46113 16.2521 9.1903 15.8551C8.91946 15.455 8.78559 14.9995 8.78866 14.4886C8.78559 14.0885 8.86407 13.7192 9.0241 13.3807C9.18414 13.0391 9.40265 12.7544 9.67964 12.5266C9.95971 12.2958 10.2721 12.1496 10.6168 12.0881V12.0327C10.1644 11.9157 9.80429 11.6618 9.53653 11.271C9.26878 10.877 9.13644 10.4292 9.13952 9.92756C9.13644 9.44744 9.258 9.01811 9.50422 8.63956C9.75043 8.26101 10.089 7.96248 10.5198 7.74396C10.9538 7.52545 11.4478 7.41619 12.0017 7.41619C12.5496 7.41619 13.0389 7.52545 13.4698 7.74396C13.9006 7.96248 14.2392 8.26101 14.4854 8.63956C14.7347 9.01811 14.8609 9.44744 14.8639 9.92756C14.8609 10.4292 14.7239 10.877 14.4531 11.271C14.1853 11.6618 13.8299 11.9157 13.3867 12.0327V12.0881C13.7283 12.1496 14.0361 12.2958 14.31 12.5266C14.5839 12.7544 14.8024 13.0391 14.9655 13.3807C15.1286 13.7192 15.2117 14.0885 15.2148 14.4886C15.2117 14.9995 15.0732 15.455 14.7993 15.8551C14.5285 16.2521 14.1515 16.5645 13.6683 16.7923C13.1882 17.0169 12.6326 17.1293 12.0017 17.1293ZM12.0017 16.1136C12.4295 16.1136 12.7988 16.0444 13.1097 15.9059C13.4205 15.7674 13.6606 15.572 13.8299 15.3196C13.9991 15.0672 14.0853 14.7718 14.0884 14.4332C14.0853 14.0762 13.993 13.7608 13.8114 13.4869C13.6298 13.2129 13.3821 12.9975 13.0681 12.8406C12.7573 12.6836 12.4018 12.6051 12.0017 12.6051C11.5986 12.6051 11.2385 12.6836 10.9215 12.8406C10.6076 12.9975 10.3598 13.2129 10.1782 13.4869C9.99972 13.7608 9.91201 14.0762 9.91508 14.4332C9.91201 14.7718 9.99356 15.0672 10.1598 15.3196C10.329 15.572 10.5706 15.7674 10.8845 15.9059C11.1985 16.0444 11.5709 16.1136 12.0017 16.1136ZM12.0017 11.6264C12.3403 11.6264 12.6403 11.5587 12.9019 11.4233C13.1666 11.2879 13.3744 11.0986 13.5252 10.8555C13.676 10.6123 13.7529 10.3277 13.756 10.0014C13.7529 9.68134 13.6775 9.40282 13.5298 9.16584C13.3821 8.92578 13.1774 8.74112 12.9158 8.61186C12.6542 8.47952 12.3495 8.41335 12.0017 8.41335C11.6478 8.41335 11.3385 8.47952 11.0738 8.61186C10.8091 8.74112 10.6045 8.92578 10.4598 9.16584C10.3152 9.40282 10.2444 9.68134 10.2475 10.0014C10.2444 10.3277 10.3167 10.6123 10.4644 10.8555C10.6152 11.0986 10.823 11.2879 11.0877 11.4233C11.3523 11.5587 11.657 11.6264 12.0017 11.6264Z" fill="#001747"/>
<rect opacity="0.1" x="0.5" y="0.5" width="23" height="23" rx="3.5" stroke="#001747"/>
</svg>
